<svg width="103" height="55" viewBox="0 0 103 55" fill="none" xmlns="http://www.w3.org/2000/svg"><path d="M18.399 9.463c1.055 0 1.887-.322 2.496-.967.604-.644.908-1.517.908-2.63V.843h-1.447v4.91c0 .726-.182 1.295-.545 1.71-.363.423-.832.628-1.412.628-.399 0-.75-.1-1.043-.299-.293-.2-.516-.48-.668-.832a2.998 2.998 0 0 1-.229-1.207V.844h-1.447v5.021c0 .569.082 1.078.246 1.53.164.457.393.832.692 1.136.293.305.65.533 1.066.692.416.164.879.24 1.383.24zm7.742 0c.275 0 .55-.03.826-.094.27-.058.533-.158.79-.299.259-.134.481-.299.675-.498.193-.193.351-.433.469-.72.117-.282.175-.598.175-.938 0-.328-.052-.621-.146-.879-.17-.445-.522-.82-1.06-1.119-.247-.135-.727-.34-1.43-.621-.598-.229-.99-.404-1.172-.522-.287-.187-.428-.421-.422-.714 0-.305.117-.551.34-.727.222-.176.51-.27.85-.27.609 0 1.259.293 1.962.874l.861-1.137C27.963 1.096 27.02.75 26.035.75c-.486 0-.937.105-1.347.316-.41.211-.739.498-.979.862a2.13 2.13 0 0 0-.363 1.207c0 .217.023.422.076.61.053.187.123.357.205.503.082.147.188.287.328.416.135.129.27.246.405.34.134.094.298.187.486.281.187.094.363.176.521.235.153.064.34.134.551.205l.434.158c.105.047.228.094.357.152.129.059.235.106.31.152.077.047.153.106.235.17.076.07.135.135.176.205a1.096 1.096 0 0 1 .135.521c0 .33-.123.581-.364.769-.246.187-.597.275-1.054.275-.381 0-.768-.094-1.155-.287a3.175 3.175 0 0 1-1.03-.838l-.915 1.125c.434.445.92.78 1.453 1.002a4.192 4.192 0 0 0 1.64.334zm4.373-.094h5.613v-1.3H31.96V5.794h3.164v-1.3H31.96v-2.35h3.914V.844h-5.361v8.525zm7.109 0h1.447V5.994h3.463v-1.3H39.07v-2.55h4.125v-1.3h-5.572v8.525zm10.232.094c1.054 0 1.886-.322 2.496-.967.603-.644.908-1.517.908-2.63V.843h-1.447v4.91c0 .726-.182 1.295-.545 1.71-.364.423-.832.628-1.412.628-.399 0-.75-.1-1.043-.299-.293-.2-.516-.48-.668-.832a2.998 2.998 0 0 1-.229-1.207V.844h-1.447v5.021c0 .569.082 1.078.246 1.53.164.457.393.832.691 1.136.293.305.65.533 1.067.692.416.164.879.24 1.383.24zm5.193-.094h5.396v-1.3h-3.949V.843h-1.447v8.525zM65.372.844V6.96h-.03L61.182.844h-1.435v8.525h1.447V3.34h.023l4.125 6.03h1.477V.844h-1.447zm3.359 8.525h5.613v-1.3h-4.166V5.794h3.164v-1.3h-3.164v-2.35h3.914V.844h-5.361v8.525zm9.658.094c.275 0 .55-.03.826-.094a2.96 2.96 0 0 0 .79-.299c.259-.134.481-.299.675-.498.193-.193.351-.433.468-.72.118-.282.176-.598.176-.938 0-.328-.053-.621-.146-.879-.17-.445-.522-.82-1.06-1.119-.247-.135-.727-.34-1.43-.621-.598-.229-.99-.404-1.172-.522-.288-.187-.428-.421-.422-.714 0-.305.117-.551.34-.727.222-.176.51-.27.85-.27.608 0 1.259.293 1.962.874l.861-1.137C80.211 1.096 79.267.75 78.283.75c-.486 0-.937.105-1.348.316-.41.211-.738.498-.978.862a2.13 2.13 0 0 0-.363 1.207c0 .217.023.422.076.61.052.187.123.357.205.503.082.147.187.287.328.416.135.129.27.246.404.34.135.094.3.187.487.281.187.094.363.176.521.235.153.064.34.134.55.205l.434.158c.106.047.229.094.358.152.129.059.234.106.31.152.077.047.153.106.235.17.076.07.135.135.176.205.035.07.07.147.093.235.024.088.041.182.041.287 0 .328-.123.58-.363.768-.246.187-.598.275-1.055.275-.38 0-.767-.094-1.154-.287a3.175 3.175 0 0 1-1.031-.838l-.914 1.125c.433.445.92.78 1.453 1.002a4.192 4.192 0 0 0 1.64.334zm6.921 0c.275 0 .55-.03.826-.094.27-.058.534-.158.791-.299.258-.134.48-.299.674-.498.194-.193.352-.433.469-.72.117-.282.176-.598.176-.938a2.56 2.56 0 0 0-.147-.879c-.17-.445-.521-.82-1.06-1.119-.246-.135-.727-.34-1.43-.621-.598-.229-.99-.404-1.172-.522-.287-.187-.428-.421-.422-.714 0-.305.117-.551.34-.727.223-.176.51-.27.85-.27.609 0 1.26.293 1.963.874l.86-1.137C87.133 1.096 86.19.75 85.206.75c-.487 0-.938.105-1.348.316a2.54 2.54 0 0 0-.978.862 2.13 2.13 0 0 0-.364 1.207 2.253 2.253 0 0 0 .281 1.113c.082.147.188.287.329.416.134.129.27.246.404.34.135.094.299.187.486.281.188.094.364.176.522.235.152.064.34.134.55.205l.434.158c.105.047.229.094.358.152.128.059.234.106.31.152.076.047.152.106.234.17.077.07.135.135.176.205.035.07.07.147.094.235.023.088.04.182.04.287 0 .328-.122.58-.362.768-.246.187-.598.275-1.055.275-.38 0-.768-.094-1.154-.287a3.177 3.177 0 0 1-1.032-.838l-.914 1.125c.434.445.92.78 1.454 1.002a4.191 4.191 0 0 0 1.64.334z" fill="#000"/><path d="M10.221 37.66l2.347 5.566 6.008.517a.475.475 0 0 1 .27.831l-4.557 3.956 1.365 5.886a.473.473 0 0 1-.705.514l-5.164-3.12-5.164 3.12a.473.473 0 0 1-.705-.514l1.367-5.886-4.558-3.957a.474.474 0 0 1 .268-.831l6.009-.518 2.347-5.564a.473.473 0 0 1 .872 0zM31.057 37.66l2.346 5.566 6.008.517a.475.475 0 0 1 .27.831l-4.556 3.956 1.365 5.886a.473.473 0 0 1-.705.514l-5.164-3.12-5.164 3.12a.473.473 0 0 1-.705-.514l1.366-5.886-4.559-3.957a.475.475 0 0 1 .27-.831l6.008-.518 2.348-5.564a.473.473 0 0 1 .872 0zM51.892 37.66l2.347 5.566 6.008.517a.475.475 0 0 1 .27.831L55.96 48.53l1.366 5.886a.474.474 0 0 1-.706.514l-5.162-3.12-5.164 3.12a.474.474 0 0 1-.706-.514l1.366-5.886-4.558-3.957a.474.474 0 0 1 .27-.831l6.008-.518 2.346-5.564a.473.473 0 0 1 .873 0zM72.727 37.66l2.347 5.566 6.008.517a.475.475 0 0 1 .27.831l-4.557 3.956 1.365 5.886a.473.473 0 0 1-.705.514l-5.164-3.12-5.162 3.12a.474.474 0 0 1-.706-.514l1.366-5.886-4.558-3.957a.474.474 0 0 1 .268-.831l6.009-.518 2.347-5.564a.473.473 0 0 1 .872 0zM93.563 37.66l2.346 5.566 6.009.517a.475.475 0 0 1 .27.831l-4.557 3.956 1.365 5.886a.473.473 0 0 1-.705.514l-5.164-3.12-5.164 3.12a.473.473 0 0 1-.705-.514l1.366-5.886-4.559-3.957a.475.475 0 0 1 .27-.831l6.009-.518 2.347-5.564a.473.473 0 0 1 .872 0z" fill="#FFD24D"/></svg>