<svg width="103" height="55" viewBox="0 0 103 55" fill="none" xmlns="http://www.w3.org/2000/svg"><path d="M22.044 9.445c.709 0 1.348-.146 1.916-.44a4.4 4.4 0 0 0 1.441-1.177l-1.066-.908a3.341 3.341 0 0 1-1.014.85c-.392.21-.82.31-1.277.31-.54 0-1.02-.123-1.441-.37a2.56 2.56 0 0 1-.99-1.036c-.24-.445-.358-.961-.358-1.535 0-.598.117-1.125.352-1.582.234-.457.562-.809.984-1.06a2.823 2.823 0 0 1 1.453-.376c.44 0 .861.106 1.26.317.398.21.744.498 1.031.85l1.066-.903A4.306 4.306 0 0 0 22.044.75c-.54 0-1.043.076-1.506.223a3.833 3.833 0 0 0-1.201.627 4.052 4.052 0 0 0-1.418 2.15c-.117.44-.176.902-.176 1.389 0 .55.07 1.054.223 1.523.146.469.351.867.62 1.207.265.34.575.627.938.867.364.24.756.416 1.184.534a4.97 4.97 0 0 0 1.336.175zm7.924.018c1.054 0 1.886-.322 2.496-.967.603-.644.908-1.517.908-2.63V.843h-1.448v4.91c0 .726-.181 1.295-.544 1.71-.364.423-.832.628-1.412.628-.399 0-.75-.1-1.044-.299-.292-.2-.515-.48-.667-.832a2.996 2.996 0 0 1-.229-1.207V.844h-1.447v5.021c0 .569.082 1.078.246 1.53.164.457.392.832.691 1.136.293.305.65.533 1.067.692.416.164.879.24 1.383.24zm7.741 0c.276 0 .551-.03.826-.094.27-.058.534-.158.792-.299.257-.134.48-.299.673-.498.194-.193.352-.433.47-.72.116-.282.175-.598.175-.938 0-.328-.053-.621-.147-.879-.17-.445-.521-.82-1.06-1.119-.246-.135-.727-.34-1.43-.621-.598-.229-.99-.404-1.172-.522-.287-.187-.427-.421-.422-.714 0-.305.118-.551.34-.727.223-.176.51-.27.85-.27.61 0 1.26.293 1.963.874l.861-1.137C39.532 1.096 38.588.75 37.604.75c-.486 0-.938.105-1.348.316-.41.211-.738.498-.978.862a2.13 2.13 0 0 0-.364 1.207c0 .217.024.422.077.61.052.187.123.357.205.503.082.147.187.287.328.416.135.129.27.246.404.34.135.094.299.187.486.281.188.094.364.176.522.235.152.064.34.134.55.205l.434.158c.106.047.229.094.358.152.129.059.234.106.31.152.076.047.153.106.235.17.076.07.134.135.175.205a1.096 1.096 0 0 1 .135.521c0 .33-.123.581-.363.769-.246.187-.598.275-1.055.275-.38 0-.767-.094-1.154-.287a3.175 3.175 0 0 1-1.031-.838l-.914 1.125c.433.445.92.78 1.453 1.002a4.192 4.192 0 0 0 1.64.334zm5.967-.094h1.447V2.145h2.444V.844h-6.311v1.3h2.42V9.37zm8.457.094c.609 0 1.177-.106 1.705-.317.527-.21.984-.51 1.365-.884.38-.375.68-.832.896-1.377a4.77 4.77 0 0 0 .329-1.781 4.76 4.76 0 0 0-.329-1.776 4.006 4.006 0 0 0-.896-1.377 4.099 4.099 0 0 0-1.365-.885A4.548 4.548 0 0 0 52.133.75a4.53 4.53 0 0 0-1.752.334 4.007 4.007 0 0 0-1.371.908 4.09 4.09 0 0 0-.873 1.383 4.692 4.692 0 0 0-.317 1.729c0 .62.105 1.2.316 1.74.211.539.498.996.873 1.383.376.386.833.685 1.372.908.539.222 1.119.328 1.752.328zm0-1.354c-.41 0-.786-.076-1.137-.234a2.531 2.531 0 0 1-.89-.639 2.946 2.946 0 0 1-.575-.955 3.277 3.277 0 0 1-.205-1.177c0-.41.064-.803.205-1.172a3.01 3.01 0 0 1 .574-.955c.24-.27.54-.48.89-.64a2.818 2.818 0 0 1 1.138-.233c.386 0 .755.076 1.101.228.34.152.639.357.885.615.246.264.44.58.586.955.14.375.217.774.217 1.202 0 .433-.076.832-.217 1.207-.147.375-.34.691-.586.955a2.703 2.703 0 0 1-1.986.844zM65.043.844l-2.801 5.103h-.024L59.406.844h-1.453v8.525H59.4V3.656h.017L61.75 7.73h.95l2.332-4.073h.017V9.37h1.448V.844h-1.454zM68.4 9.369h5.614v-1.3h-4.166V5.794h3.164v-1.3h-3.164v-2.35h3.914V.844H68.4v8.525zm13.479 0L79.7 6.2v-.023c.592-.164 1.049-.457 1.377-.89.328-.434.492-.991.492-1.677 0-.316-.04-.615-.111-.896a2.533 2.533 0 0 0-.334-.762 2.371 2.371 0 0 0-.569-.592 2.69 2.69 0 0 0-.826-.38 4.068 4.068 0 0 0-1.072-.135H75.51v8.525h1.448V6.33h1.148l2.033 3.04h1.74zm-4.922-7.224h1.482c.516 0 .92.128 1.201.38.282.258.428.61.428 1.055 0 .445-.146.797-.44 1.055-.292.263-.726.392-1.288.392h-1.383V2.145zM15.87 20.369h5.614v-1.3h-4.166v-2.274h3.164v-1.3h-3.164v-2.35h3.914v-1.301H15.87v8.525zm12.318 0h1.7l-2.83-4.271 2.76-4.254h-1.659L26.12 14.96h-.023l-2.045-3.117h-1.67l2.771 4.254-2.836 4.271h1.694l2.08-3.14h.023l2.074 3.14zm2.943 0h1.448v-3.04h1.47c.37 0 .71-.036 1.026-.106.316-.07.597-.176.855-.323a2.29 2.29 0 0 0 .645-.533 2.24 2.24 0 0 0 .41-.767c.094-.293.146-.627.146-.99 0-.27-.029-.522-.076-.756a3.208 3.208 0 0 0-.228-.668 2.156 2.156 0 0 0-.387-.557 2.524 2.524 0 0 0-1.3-.691 4.527 4.527 0 0 0-.92-.094H31.13v8.525zm1.448-4.348v-2.877h1.43c.515 0 .92.13 1.2.381.282.252.422.604.422 1.055 0 .445-.146.797-.433 1.055-.287.258-.715.386-1.29.386h-1.33zm5.931 4.348h5.613v-1.3h-4.166v-2.274h3.164v-1.3h-3.164v-2.35h3.914v-1.301H38.51v8.525zm13.478 0l-2.18-3.17v-.023c.592-.164 1.05-.457 1.377-.89.329-.434.493-.991.493-1.677 0-.316-.041-.615-.112-.896a2.532 2.532 0 0 0-.334-.762 2.37 2.37 0 0 0-.568-.592 2.69 2.69 0 0 0-.826-.38 4.068 4.068 0 0 0-1.072-.135h-3.147v8.525h1.447v-3.04h1.149l2.033 3.04h1.74zm-4.922-7.224h1.483c.515 0 .92.128 1.2.38.282.258.429.61.429 1.055 0 .445-.147.797-.44 1.055-.293.263-.726.392-1.289.392h-1.383v-2.883zm6.277 7.224h1.453v-8.525h-1.453v8.525zm3.412 0h5.613v-1.3h-4.166v-2.274h3.165v-1.3h-3.165v-2.35h3.915v-1.301h-5.362v8.525zm12.734-8.525v6.117h-.03l-4.16-6.117h-1.435v8.525h1.447v-6.03h.024l4.125 6.03h1.477v-8.525h-1.448zm7.273 8.601c.71 0 1.348-.146 1.916-.44a4.401 4.401 0 0 0 1.442-1.177l-1.067-.908a3.342 3.342 0 0 1-1.013.85c-.393.21-.82.31-1.278.31-.539 0-1.02-.123-1.441-.37a2.56 2.56 0 0 1-.99-1.036c-.24-.445-.358-.961-.358-1.535 0-.598.118-1.125.352-1.582.234-.457.562-.809.984-1.06a2.824 2.824 0 0 1 1.453-.376c.44 0 .862.106 1.26.316.398.211.744.498 1.031.85l1.067-.902a4.306 4.306 0 0 0-3.358-1.635c-.539 0-1.043.076-1.505.223a3.831 3.831 0 0 0-1.202.627 4.051 4.051 0 0 0-1.418 2.15c-.117.44-.175.902-.175 1.389 0 .55.07 1.054.222 1.523.147.469.352.867.621 1.207.264.34.574.627.938.867.363.24.756.416 1.183.534a4.97 4.97 0 0 0 1.336.175zm4.66-.076h5.614v-1.3h-4.167v-2.274h3.165v-1.3h-3.165v-2.35h3.915v-1.301h-5.362v8.525z" fill="#000"/><path d="M10.013 37.66l2.346 5.566 6.008.517a.475.475 0 0 1 .27.831l-4.556 3.956 1.365 5.886a.473.473 0 0 1-.705.514l-5.164-3.12-5.164 3.12a.473.473 0 0 1-.705-.514l1.366-5.886-4.558-3.957a.474.474 0 0 1 .27-.831l6.007-.518 2.348-5.564a.473.473 0 0 1 .872 0zM30.849 37.66l2.346 5.566 6.008.517a.475.475 0 0 1 .27.831l-4.556 3.956 1.364 5.886a.473.473 0 0 1-.704.514l-5.164-3.12-5.164 3.12a.473.473 0 0 1-.705-.514l1.366-5.886-4.56-3.957a.475.475 0 0 1 .271-.831l6.008-.518 2.348-5.564a.473.473 0 0 1 .872 0zM51.683 37.66l2.348 5.566 6.008.517a.475.475 0 0 1 .27.831l-4.558 3.956 1.366 5.886a.474.474 0 0 1-.706.514l-5.162-3.12-5.164 3.12a.474.474 0 0 1-.706-.514l1.366-5.886-4.558-3.957a.474.474 0 0 1 .27-.831l6.008-.518 2.346-5.564a.473.473 0 0 1 .872 0zM72.52 37.66l2.345 5.566 6.009.517a.475.475 0 0 1 .27.831l-4.557 3.956 1.365 5.886a.473.473 0 0 1-.705.514l-5.164-3.12-5.162 3.12a.474.474 0 0 1-.707-.514l1.366-5.886-4.558-3.957a.474.474 0 0 1 .27-.831l6.007-.518 2.348-5.564a.473.473 0 0 1 .872 0zM93.355 37.66l2.346 5.566 6.008.517a.475.475 0 0 1 .271.831l-4.557 3.956 1.365 5.886a.473.473 0 0 1-.705.514l-5.164-3.12-5.164 3.12a.473.473 0 0 1-.705-.514l1.366-5.886-4.56-3.957a.475.475 0 0 1 .271-.831l6.008-.518 2.348-5.564a.473.473 0 0 1 .872 0z" fill="#FFD24D"/></svg>