<svg width="106" height="54" viewBox="0 0 106 54" fill="none" xmlns="http://www.w3.org/2000/svg"><path d="M23.748 8.999h5.396v-1.3h-3.949V.473h-1.447v8.525zm6.752 0h1.453V.474H30.5v8.525zm5.843-3.557L38.798 9h1.799l-3.299-4.723 3.2-3.802h-1.84l-3.276 4.084h-.023V.474H33.91v8.525h1.448V6.585l.96-1.143h.024zM41.7 9h5.613v-1.3h-4.166V5.424h3.165V4.124h-3.165v-2.35h3.915v-1.3H41.7v8.525zm7.11 0h5.396v-1.3h-3.95V.473H48.81v8.525zM59.04.474L57.15 3.778h-.035L55.209.474h-1.658L56.4 5.23V9h1.453V5.231L60.717.474h-1.676zm7.498 8.525h1.447V1.774h2.443v-1.3h-6.31v1.3h2.42V9zm8.457.094c.609 0 1.177-.106 1.705-.317a4.1 4.1 0 0 0 1.365-.884c.38-.375.68-.832.896-1.377a4.77 4.77 0 0 0 .328-1.782 4.76 4.76 0 0 0-.328-1.775 4.004 4.004 0 0 0-.896-1.377A4.1 4.1 0 0 0 76.7.696 4.549 4.549 0 0 0 74.996.38a4.53 4.53 0 0 0-1.752.334 4.007 4.007 0 0 0-1.372.908A4.09 4.09 0 0 0 71 3.005a4.694 4.694 0 0 0-.316 1.728c0 .621.105 1.202.316 1.74.211.54.498.997.873 1.383.375.387.832.686 1.371.909.54.222 1.12.328 1.753.328zm0-1.354c-.41 0-.786-.076-1.137-.234a2.53 2.53 0 0 1-.89-.639 2.95 2.95 0 0 1-.575-.955 3.277 3.277 0 0 1-.205-1.178c0-.41.064-.802.205-1.171.14-.364.328-.686.574-.956.24-.27.54-.48.89-.638a2.817 2.817 0 0 1 1.138-.235c.386 0 .755.077 1.101.229.34.152.639.357.885.615.246.264.44.58.586.955.14.375.217.774.217 1.201 0 .434-.077.832-.217 1.207-.147.375-.34.692-.586.956a2.703 2.703 0 0 1-1.986.844zM26.199 20l-2.18-3.17v-.023c.592-.164 1.049-.457 1.377-.891.328-.434.492-.99.492-1.676 0-.316-.04-.615-.111-.896a2.534 2.534 0 0 0-.334-.762 2.37 2.37 0 0 0-.568-.592 2.688 2.688 0 0 0-.826-.38 4.068 4.068 0 0 0-1.073-.135H19.83v8.525h1.447v-3.041h1.148l2.034 3.041h1.74zm-4.922-7.225h1.482c.516 0 .92.13 1.202.381.28.258.427.61.427 1.055 0 .445-.146.797-.44 1.055-.292.263-.726.392-1.288.392h-1.383v-2.883zM27.501 20h5.614v-1.3h-4.167v-2.274h3.165v-1.301h-3.165v-2.35h3.915v-1.3H27.5v8.525zm10.695.076c.71 0 1.348-.146 1.916-.44a4.4 4.4 0 0 0 1.442-1.177l-1.067-.908a3.341 3.341 0 0 1-1.013.85c-.393.21-.82.31-1.278.31-.539 0-1.02-.123-1.441-.37a2.56 2.56 0 0 1-.99-1.036c-.24-.446-.358-.961-.358-1.535 0-.598.117-1.125.352-1.582.234-.457.562-.81.984-1.061a2.824 2.824 0 0 1 1.453-.375c.44 0 .862.105 1.26.316.398.211.744.498 1.031.85l1.067-.902a4.307 4.307 0 0 0-3.358-1.635c-.539 0-1.043.076-1.506.222a3.834 3.834 0 0 0-1.2.627 4.051 4.051 0 0 0-1.419 2.15c-.117.44-.175.903-.175 1.39 0 .55.07 1.054.222 1.523.147.469.352.867.621 1.207.264.34.575.627.938.867s.756.416 1.183.533a4.97 4.97 0 0 0 1.336.176zm8.55.018a4.55 4.55 0 0 0 1.706-.317 4.1 4.1 0 0 0 1.365-.884c.38-.375.68-.832.897-1.377a4.769 4.769 0 0 0 .328-1.782 4.76 4.76 0 0 0-.328-1.775 4.005 4.005 0 0 0-.897-1.377 4.099 4.099 0 0 0-1.365-.885 4.55 4.55 0 0 0-1.705-.316c-.633 0-1.213.111-1.752.334-.54.223-.996.521-1.371.908a4.091 4.091 0 0 0-.873 1.383 4.694 4.694 0 0 0-.317 1.728c0 .622.106 1.202.317 1.74.21.54.498.997.873 1.383.375.387.832.686 1.37.909.54.222 1.12.328 1.753.328zm0-1.354c-.41 0-.784-.076-1.136-.234a2.531 2.531 0 0 1-.89-.639 2.945 2.945 0 0 1-.575-.955 3.277 3.277 0 0 1-.205-1.178c0-.41.065-.802.205-1.171a3.01 3.01 0 0 1 .574-.956c.24-.27.54-.48.891-.638a2.817 2.817 0 0 1 1.137-.235c.386 0 .756.077 1.101.229.34.152.639.357.885.615.246.264.44.58.586.955.14.375.217.774.217 1.201 0 .434-.076.832-.217 1.207a2.95 2.95 0 0 1-.586.955 2.704 2.704 0 0 1-1.986.844zm12.91-7.265l-2.8 5.103h-.024l-2.812-5.103h-1.453v8.525h1.447v-5.713h.018l2.332 4.072h.949l2.332-4.072h.017V20h1.448v-8.525h-1.453zm3.36 8.525h5.613v-1.3h-4.166v-2.274h3.164v-1.301h-3.164v-2.35h3.914v-1.3h-5.361v8.525zm12.734-8.525v6.117h-.03l-4.16-6.117h-1.435v8.525h1.447v-6.03h.023L75.72 20h1.477v-8.525H75.75zm3.359 8.525h2.748c.668 0 1.283-.1 1.834-.31a3.808 3.808 0 0 0 1.388-.868c.37-.375.657-.82.862-1.347.199-.522.305-1.096.305-1.723 0-.621-.106-1.201-.317-1.728a3.977 3.977 0 0 0-.879-1.354 4.016 4.016 0 0 0-1.4-.879 5.12 5.12 0 0 0-1.828-.316h-2.713v8.525zm1.447-1.3v-5.925h1.295c.557 0 1.055.13 1.5.381.445.258.785.61 1.031 1.06.246.458.37.968.37 1.536 0 .422-.077.809-.217 1.172-.141.363-.34.68-.598.937a2.637 2.637 0 0 1-.944.616 3.229 3.229 0 0 1-1.224.222h-1.213z" fill="#000"/><path fill="#333" d="M.144 37.999h105.401v16H.144z"/><path fill="#FFD24D" d="M.144 37.999h103.293v16H.144z"/><path d="M75.979 41.667c-.551 0-1.043.117-1.489.346-.445.228-.796.55-1.054.96a2.61 2.61 0 0 0-.387 1.401c0 .41.064.785.193 1.12a2.329 2.329 0 0 0 1.353 1.348c.311.122.645.18 1.009.18.62 0 1.177-.146 1.664-.439l.011.012c-.128.34-.292.644-.498.914-.205.27-.445.51-.714.709-.27.205-.563.38-.88.527a6.86 6.86 0 0 1-1.048.375l.44 1.166a5.16 5.16 0 0 0 1.704-.633c.528-.304.99-.685 1.383-1.142.387-.457.698-.99.92-1.612.223-.62.34-1.277.34-1.974 0-.381-.053-.744-.147-1.084a3.31 3.31 0 0 0-.415-.908 3.33 3.33 0 0 0-.633-.68 2.791 2.791 0 0 0-.815-.434c-.299-.1-.61-.152-.937-.152zm-1.53 2.719c0-.393.141-.727.434-1.008.287-.281.662-.422 1.12-.422.456 0 .837.176 1.13.516.293.345.44.797.44 1.347v.112c-.2.24-.44.44-.721.592a1.819 1.819 0 0 1-.903.234c-.457 0-.826-.123-1.095-.381-.27-.252-.404-.58-.404-.99zm9.887 1.16v-.018c.264-.111.498-.328.709-.65.205-.322.31-.68.31-1.078 0-.434-.11-.809-.328-1.131a2.05 2.05 0 0 0-.902-.738 3.254 3.254 0 0 0-1.324-.258c-.487 0-.92.082-1.295.246a2.04 2.04 0 0 0-.908.732 1.991 1.991 0 0 0-.334 1.149c0 .27.047.527.152.773s.228.451.38.61c.153.164.311.275.481.345v.018c-.422.164-.761.44-1.025.814-.264.375-.393.832-.393 1.366 0 .457.123.867.375 1.23s.604.639 1.05.838c.444.2.954.293 1.517.293.55 0 1.049-.094 1.494-.281a2.523 2.523 0 0 0 1.072-.826c.264-.364.399-.78.399-1.254 0-.534-.135-.99-.399-1.366-.27-.375-.61-.65-1.031-.814zM82.8 42.892c.351 0 .638.1.873.298.234.2.351.44.351.733a.935.935 0 0 1-.34.744c-.228.188-.521.281-.884.281-.358 0-.65-.093-.873-.281a.918.918 0 0 1-.34-.744.94.94 0 0 1 .34-.727c.228-.199.521-.304.873-.304zm0 5.953c-.428 0-.791-.123-1.084-.37a1.162 1.162 0 0 1-.44-.925c0-.387.14-.71.422-.955.281-.246.645-.375 1.102-.375.45 0 .82.129 1.101.375s.428.568.428.955c0 .357-.147.662-.428.914-.287.258-.656.38-1.101.38zm7.93 1.418l3.76-8.49-1.077-.47-3.768 8.49 1.084.47zm-1.858-4.114c.468 0 .884-.105 1.26-.322a2.25 2.25 0 0 0 .855-.867c.2-.363.299-.762.299-1.201 0-.463-.112-.88-.328-1.242a2.221 2.221 0 0 0-.873-.838 2.577 2.577 0 0 0-1.213-.293 2.51 2.51 0 0 0-1.266.322c-.37.21-.65.498-.85.861-.199.364-.298.756-.298 1.19 0 .468.105.89.322 1.254.217.369.51.65.879.843.363.2.767.293 1.213.293zm.005-1.025c-.357 0-.656-.123-.902-.375s-.363-.58-.363-.979c0-.246.053-.468.158-.673a1.19 1.19 0 0 1 .445-.487 1.26 1.26 0 0 1 .663-.181c.363 0 .667.129.914.375.246.246.369.568.369.966 0 .381-.123.704-.358.961-.24.264-.55.393-.925.393zm6.346 4.969c.469 0 .89-.106 1.266-.323.375-.216.656-.503.855-.867.2-.357.3-.755.3-1.195 0-.463-.112-.879-.329-1.242a2.261 2.261 0 0 0-.873-.838 2.584 2.584 0 0 0-1.219-.293c-.469 0-.89.111-1.26.322-.369.211-.65.498-.85.862-.198.363-.298.755-.298 1.189 0 .469.105.885.322 1.248.217.363.51.645.873.844.364.199.768.293 1.213.293zm.012-1.032a1.234 1.234 0 0 1-.908-.37 1.186 1.186 0 0 1-.27-.426c-.07-.164-.1-.352-.1-.551 0-.375.118-.697.358-.955.234-.258.545-.387.92-.387a1.243 1.243 0 0 1 1.108.644c.117.206.175.44.175.698 0 .38-.123.703-.357.96-.24.259-.551.388-.926.388z" fill="#000"/></svg>