<svg width="114" height="57" viewBox="0 0 114 57" fill="none" xmlns="http://www.w3.org/2000/svg"><path d="M16.308 39.66l2.346 5.566 6.008.517a.475.475 0 0 1 .27.831l-4.556 3.956 1.365 5.886a.473.473 0 0 1-.705.514l-5.164-3.12-5.164 3.12a.473.473 0 0 1-.705-.514l1.366-5.886-4.558-3.957a.474.474 0 0 1 .27-.831l6.007-.518 2.348-5.564a.473.473 0 0 1 .872 0zM37.144 39.66l2.346 5.566 6.008.517a.475.475 0 0 1 .27.831l-4.556 3.956 1.364 5.886a.473.473 0 0 1-.705.514l-5.163-3.12-5.164 3.12a.473.473 0 0 1-.705-.514l1.366-5.886-4.56-3.957a.475.475 0 0 1 .27-.831l6.01-.518 2.347-5.564a.473.473 0 0 1 .872 0zM57.978 39.66l2.348 5.566 6.008.517a.475.475 0 0 1 .27.831l-4.558 3.956 1.366 5.886a.474.474 0 0 1-.706.514l-5.163-3.12-5.163 3.12a.474.474 0 0 1-.707-.514l1.366-5.886-4.558-3.957a.474.474 0 0 1 .27-.831l6.009-.518 2.346-5.564a.473.473 0 0 1 .872 0zM78.814 39.66l2.346 5.566 6.008.517a.475.475 0 0 1 .27.831l-4.556 3.956 1.365 5.886a.473.473 0 0 1-.705.514l-5.164-3.12-5.162 3.12a.474.474 0 0 1-.707-.514l1.366-5.886-4.558-3.957a.474.474 0 0 1 .27-.831l6.007-.518 2.348-5.564a.473.473 0 0 1 .872 0zM99.65 39.66l2.346 5.566 6.008.517a.475.475 0 0 1 .27.831l-4.556 3.956 1.364 5.886a.473.473 0 0 1-.705.514l-5.163-3.12-5.164 3.12a.473.473 0 0 1-.705-.514l1.366-5.886-4.56-3.957a.475.475 0 0 1 .271-.831l6.008-.518 2.348-5.564a.473.473 0 0 1 .872 0z" fill="#FFD24D"/><path d="M.647 9.569H17.31V3.316L.647 9.57zM17.31 3.316v22.1L25.19.369l-7.88 2.947z" fill="#333"/><path d="M17.31 9.568h-6.296l6.296 15.83V9.567z" fill="#333"/><path d="M.647 9.568l11.989 4.062-1.622-4.062H.647zM38.837 19.579a2.769 2.769 0 0 1-.452.34c-.207.132-.49.283-.83.415a6.9 6.9 0 0 1-1.262.36 8.98 8.98 0 0 1-1.697.15c-1.225 0-2.3-.207-3.204-.585-.905-.397-1.64-.945-2.225-1.662a6.75 6.75 0 0 1-1.282-2.513c-.282-.963-.414-2.04-.414-3.192 0-1.152.15-2.229.452-3.21.302-.983.735-1.833 1.339-2.55a5.996 5.996 0 0 1 2.224-1.682c.886-.397 1.941-.604 3.148-.604.584 0 1.13.056 1.602.15.471.114.905.227 1.263.379.358.15.66.302.886.453.245.151.415.302.528.397.132.113.264.264.358.434.094.17.15.359.15.548 0 .302-.112.604-.338.906a6.403 6.403 0 0 1-.755.85 9.297 9.297 0 0 0-.622-.566 4.569 4.569 0 0 0-.773-.51 4.426 4.426 0 0 0-.96-.36 4.682 4.682 0 0 0-1.207-.15c-.773 0-1.433.15-1.96.472a3.746 3.746 0 0 0-1.264 1.228 5.122 5.122 0 0 0-.678 1.719 9.827 9.827 0 0 0-.208 1.983c0 .718.076 1.398.208 2.059.132.661.377 1.228.716 1.738.34.51.773.906 1.32 1.209.546.302 1.206.453 2.017.453.433 0 .81-.057 1.168-.151.358-.114.679-.246.943-.397.282-.151.509-.321.716-.472.208-.17.377-.321.51-.435.093.114.188.246.32.397.132.151.245.321.339.472.113.17.188.34.283.51a1.073 1.073 0 0 1 0 .963 3.09 3.09 0 0 1-.359.454zM50.6 17.822c0 1.21.17 2.097.528 2.645a3.493 3.493 0 0 1-.773.226c-.245.038-.49.076-.754.076-.547 0-.961-.113-1.244-.321-.283-.208-.471-.529-.547-.926-.34.36-.773.661-1.338.907-.547.245-1.226.359-2.017.359-.415 0-.83-.057-1.244-.17a3.19 3.19 0 0 1-1.131-.567c-.34-.264-.603-.604-.83-1.039-.207-.434-.32-.963-.32-1.586 0-.775.188-1.417.565-1.908a4.01 4.01 0 0 1 1.414-1.152 6.676 6.676 0 0 1 1.828-.586c.66-.113 1.264-.17 1.81-.208.189-.019.358-.019.547-.019h.49v-.415c0-.586-.15-1.001-.471-1.266-.32-.245-.83-.377-1.527-.377-.66 0-1.244.113-1.753.32-.51.208-1.018.454-1.508.737-.208-.264-.396-.547-.51-.869-.131-.32-.188-.547-.188-.698 0-.208.113-.416.358-.624.245-.208.566-.378.98-.548.415-.17.887-.283 1.433-.396a9.61 9.61 0 0 1 1.697-.151c.83 0 1.527.075 2.092.245.566.17 1.037.435 1.395.775a3 3 0 0 1 .773 1.322c.15.529.226 1.152.226 1.851l.019 4.363zm-2.94-2.663h-.321c-.113 0-.207 0-.32.019-.378.038-.755.075-1.132.132-.377.057-.716.17-.999.321a2.226 2.226 0 0 0-.716.605c-.188.245-.283.566-.283.944 0 .434.113.793.358 1.096.245.302.66.453 1.245.453.282 0 .565-.038.829-.113.264-.076.49-.17.697-.303.208-.132.359-.264.472-.396.113-.151.17-.284.17-.397V15.16zm8.652-4.533c.245-.284.622-.586 1.15-.888.527-.302 1.168-.453 1.96-.453.565 0 1.112.094 1.621.283.509.189.961.51 1.357.925.396.435.717 1.002.943 1.7.245.7.358 1.568.358 2.607 0 1.19-.132 2.191-.415 2.966-.282.774-.622 1.397-1.055 1.832a3.762 3.762 0 0 1-1.452.963 4.778 4.778 0 0 1-1.602.284c-.434 0-.83-.057-1.15-.152a3.78 3.78 0 0 1-.83-.34 2.546 2.546 0 0 1-.527-.359c-.113-.113-.208-.207-.226-.245v5.667h-3.13V9.625a1.14 1.14 0 0 1 .283-.038c.094-.02.207-.02.32-.038.133 0 .264-.019.434-.019.51 0 .943.076 1.3.246.34.17.566.453.66.85zm4.147 4.25a6.93 6.93 0 0 0-.113-1.285 3.389 3.389 0 0 0-.377-1.039 1.912 1.912 0 0 0-.717-.68c-.301-.17-.66-.245-1.093-.245-.641 0-1.093.132-1.338.359-.245.245-.377.51-.377.812v4.892c.113.132.339.264.66.434.32.17.678.246 1.093.246.772 0 1.338-.302 1.715-.925.358-.605.547-1.455.547-2.57zm5.655 3.966a3.977 3.977 0 0 1-.208-.963c-.037-.34-.037-.68-.037-1.02V6.187c.113-.02.226-.038.339-.038.113-.019.226-.019.34-.038.112 0 .244-.019.358-.019.244 0 .49.02.735.076.245.038.47.132.66.283.207.132.358.321.49.567.113.245.188.548.188.925v1.644h3.223v2.323h-3.204v4.911c0 1.077.433 1.606 1.3 1.606.208 0 .415-.038.604-.095.188-.075.358-.15.509-.226.15-.076.282-.17.395-.265.114-.094.189-.17.246-.208.226.34.414.624.527.87.114.245.189.471.189.698 0 .208-.076.397-.245.586-.17.189-.396.378-.679.529-.282.17-.64.302-1.055.396a6.09 6.09 0 0 1-1.358.151c-.942 0-1.696-.189-2.224-.547-.49-.397-.867-.87-1.093-1.474zm14.005-.302c.377 0 .717-.038 1.018-.132.283-.076.547-.189.792-.302.226-.114.434-.265.603-.397.17-.151.32-.283.453-.397.188.227.377.53.584.888.207.359.302.661.302.888 0 .34-.189.642-.566.925-.32.246-.773.454-1.376.643-.584.17-1.282.264-2.073.264a8.148 8.148 0 0 1-2.13-.283 4.89 4.89 0 0 1-1.867-.964c-.546-.453-.98-1.076-1.32-1.85-.338-.775-.508-1.757-.508-2.928 0-.964.15-1.795.452-2.494.302-.699.698-1.284 1.188-1.738a4.855 4.855 0 0 1 1.696-1.02 6.038 6.038 0 0 1 1.923-.32c.848 0 1.584.132 2.187.396a3.85 3.85 0 0 1 1.451 1.077c.377.453.641.963.81 1.549.17.585.246 1.19.246 1.832v.32c0 .133 0 .246-.019.398 0 .132-.019.264-.019.396s-.019.227-.038.302h-6.767c.057.85.32 1.55.792 2.116.452.548 1.187.831 2.186.831zm1.056-4.665c0-.737-.15-1.342-.433-1.795-.283-.453-.792-.699-1.527-.699-.641 0-1.131.227-1.508.661-.377.435-.566 1.04-.566 1.832h4.034zm8.257-3.193c.094-.132.207-.283.358-.453.15-.17.339-.321.565-.453.226-.133.471-.246.735-.34.264-.095.547-.133.867-.133.189 0 .378.02.585.038.207.038.396.095.565.17.17.076.32.19.434.34.113.151.17.321.17.53 0 .34-.076.717-.245 1.151-.17.435-.34.813-.51 1.115a4.015 4.015 0 0 0-.772-.491 2.303 2.303 0 0 0-.924-.17c-.471 0-.867.132-1.188.415-.32.284-.49.605-.49 1.001v7.443h-3.129V9.604c.076-.018.17-.037.283-.037.094-.019.207-.019.32-.038.114 0 .264-.019.434-.019.49 0 .924.095 1.282.284.34.207.565.49.66.887zm8.878 0c.094-.132.207-.283.358-.453.151-.17.34-.321.566-.453.226-.133.47-.246.735-.34.264-.095.546-.133.867-.133.188 0 .377.02.584.038.208.038.396.095.566.17.169.076.32.19.433.34.113.151.17.321.17.53 0 .34-.075.717-.245 1.151-.17.435-.339.813-.509 1.115a4.02 4.02 0 0 0-.773-.491 2.302 2.302 0 0 0-.924-.17c-.47 0-.867.132-1.187.415-.32.284-.49.605-.49 1.001v7.443h-3.13V9.604c.076-.018.17-.037.283-.037.095-.019.208-.019.32-.038.114 0 .265-.019.434-.019.49 0 .924.095 1.282.284.34.207.566.49.66.887zm14.91 7.14c0 1.21.17 2.097.528 2.645a3.483 3.483 0 0 1-.773.226c-.245.038-.49.076-.754.076-.546 0-.961-.113-1.244-.321-.282-.208-.471-.529-.546-.926-.34.36-.773.661-1.339.907-.546.245-1.225.359-2.017.359-.414 0-.829-.057-1.244-.17a3.202 3.202 0 0 1-1.131-.567c-.339-.264-.603-.604-.829-1.039-.208-.434-.321-.963-.321-1.586 0-.775.189-1.417.566-1.908a4.006 4.006 0 0 1 1.414-1.152 6.667 6.667 0 0 1 1.828-.586 17.78 17.78 0 0 1 1.81-.208c.188-.019.358-.019.546-.019h.49v-.415c0-.586-.15-1.001-.471-1.266-.32-.245-.829-.377-1.527-.377-.659 0-1.244.113-1.753.32-.509.208-1.018.454-1.508.737-.207-.264-.396-.547-.509-.869-.132-.32-.188-.547-.188-.698 0-.208.113-.416.358-.624.245-.208.565-.378.98-.548.415-.17.886-.283 1.433-.396a9.605 9.605 0 0 1 1.696-.151c.83 0 1.527.075 2.093.245.565.17 1.036.435 1.395.775.358.359.622.793.772 1.322.151.529.227 1.152.227 1.851l.018 4.363zm-2.94-2.663h-.321c-.113 0-.207 0-.32.019-.377.038-.754.075-1.131.132a3.11 3.11 0 0 0-.999.321 2.217 2.217 0 0 0-.716.605c-.189.245-.283.566-.283.944 0 .434.113.793.358 1.096.245.302.66.453 1.244.453.283 0 .566-.038.83-.113.263-.076.49-.17.697-.303.207-.132.358-.264.471-.396.113-.151.17-.284.17-.397V15.16z" fill="#333"/></svg>