<svg width="114" height="58" viewBox="0 0 114 58" fill="none" xmlns="http://www.w3.org/2000/svg"><path d="M16.41 40.66l2.346 5.566 6.008.517a.475.475 0 0 1 .27.831l-4.556 3.956 1.364 5.886a.473.473 0 0 1-.705.514l-5.163-3.12-5.164 3.12a.473.473 0 0 1-.705-.514l1.366-5.886-4.558-3.957a.474.474 0 0 1 .269-.831l6.008-.518 2.348-5.564a.473.473 0 0 1 .872 0zM37.245 40.66l2.347 5.566 6.008.517a.475.475 0 0 1 .27.831l-4.557 3.956 1.365 5.886a.473.473 0 0 1-.705.514l-5.163-3.12-5.164 3.12a.473.473 0 0 1-.705-.514l1.366-5.886-4.56-3.957a.475.475 0 0 1 .27-.831l6.009-.518 2.347-5.564a.473.473 0 0 1 .873 0zM58.08 40.66l2.348 5.566 6.008.517a.475.475 0 0 1 .27.831l-4.558 3.956 1.366 5.886a.474.474 0 0 1-.706.514l-5.163-3.12-5.163 3.12a.474.474 0 0 1-.707-.514l1.366-5.886-4.558-3.957a.474.474 0 0 1 .27-.831l6.009-.518 2.346-5.564a.473.473 0 0 1 .872 0zM78.916 40.66l2.346 5.566 6.008.517a.475.475 0 0 1 .27.831l-4.556 3.956 1.365 5.886a.473.473 0 0 1-.706.514l-5.163-3.12-5.163 3.12a.474.474 0 0 1-.706-.514l1.366-5.886-4.558-3.957a.474.474 0 0 1 .269-.831l6.008-.518 2.348-5.564a.473.473 0 0 1 .872 0zM99.752 40.66l2.346 5.566 6.008.517a.475.475 0 0 1 .27.831l-4.556 3.956 1.364 5.886a.473.473 0 0 1-.705.514l-5.163-3.12-5.164 3.12a.473.473 0 0 1-.705-.514l1.366-5.886-4.56-3.957a.475.475 0 0 1 .27-.831l6.009-.518 2.347-5.564a.473.473 0 0 1 .873 0z" fill="#FFD24D"/><path d="M30.475 10.229h11.442v2.134h-4.505v12.032h-2.47V12.363h-4.486l.02-2.134zm10.952 3.91h2.112v1.983h.037c.076-.284.208-.548.396-.812.189-.265.415-.51.698-.718.264-.227.565-.397.904-.529.32-.132.66-.208 1-.208.263 0 .452.02.546.02.094.018.208.037.302.037v2.172c-.151-.038-.32-.057-.49-.075-.17-.02-.32-.038-.49-.038-.377 0-.736.075-1.075.226-.34.152-.622.378-.886.662a3.587 3.587 0 0 0-.603 1.095c-.15.434-.226.944-.226 1.511v4.873H41.39l.037-10.2zM57.79 24.395h-2.224V22.96h-.038c-.282.528-.697.925-1.244 1.246a3.279 3.279 0 0 1-1.677.473c-1.339 0-2.319-.322-2.922-1.002-.603-.66-.905-1.68-.905-3.022v-6.517h2.262v6.29c0 .907.17 1.55.528 1.908.34.378.83.567 1.451.567.472 0 .867-.076 1.188-.227.32-.15.584-.34.773-.585.207-.246.339-.548.433-.888.094-.34.132-.718.132-1.114v-5.95h2.262v10.256h-.019zm3.846-3.287c.075.662.32 1.115.754 1.398.433.265.961.397 1.564.397.208 0 .453-.019.717-.057a3.15 3.15 0 0 0 .754-.189c.245-.094.433-.226.584-.415a.969.969 0 0 0 .208-.699c-.02-.283-.114-.529-.321-.718-.207-.189-.452-.32-.754-.453a6.524 6.524 0 0 0-1.056-.284c-.395-.075-.791-.17-1.206-.264a13.01 13.01 0 0 1-1.225-.34 3.509 3.509 0 0 1-1.056-.548 2.353 2.353 0 0 1-.735-.869c-.188-.358-.283-.774-.283-1.303 0-.567.132-1.02.415-1.398.264-.377.622-.68 1.037-.906a4.7 4.7 0 0 1 1.395-.492c.508-.094.999-.132 1.451-.132.528 0 1.037.057 1.508.17.471.114.924.284 1.3.548.397.246.717.586.962.982.264.397.415.888.49 1.455h-2.356c-.113-.548-.358-.907-.735-1.096a3.03 3.03 0 0 0-1.339-.283c-.15 0-.358.019-.565.038a3.318 3.318 0 0 0-.622.15 1.474 1.474 0 0 0-.49.322.757.757 0 0 0-.208.548c0 .283.095.49.283.66.189.17.434.303.754.435.302.113.66.208 1.056.284.396.075.81.17 1.225.264.415.094.81.208 1.206.34.396.132.755.302 1.056.548.302.226.566.51.754.85.189.34.283.774.283 1.265 0 .605-.132 1.115-.415 1.55-.283.415-.64.774-1.074 1.038-.434.265-.943.453-1.47.586a7.883 7.883 0 0 1-1.603.189c-.64 0-1.244-.076-1.79-.227a4.556 4.556 0 0 1-1.433-.661 3.169 3.169 0 0 1-.943-1.115c-.226-.434-.358-.963-.377-1.586h2.281v.018h.019zm7.446-6.97h1.715v-3.097h2.262v3.079h2.036v1.68h-2.036v5.479c0 .245.019.434.038.623.019.17.075.321.132.434a.737.737 0 0 0 .32.265c.151.056.34.094.603.094.151 0 .32 0 .472-.019.15-.019.32-.037.471-.075v1.756c-.245.038-.49.057-.735.076-.245.038-.471.038-.735.038-.604 0-1.075-.057-1.433-.17a2.059 2.059 0 0 1-.848-.491 1.757 1.757 0 0 1-.415-.813 6.463 6.463 0 0 1-.132-1.133V15.82h-1.715V14.1v.039zm7.596 0h2.13v1.398h.038c.32-.604.754-1.02 1.32-1.284a4.265 4.265 0 0 1 1.847-.397c.81 0 1.508.132 2.111.435a3.961 3.961 0 0 1 1.49 1.17c.395.492.697 1.077.885 1.738.189.662.302 1.38.302 2.116 0 .699-.094 1.36-.264 2.002-.188.643-.452 1.228-.81 1.72-.359.49-.811.887-1.376 1.19-.566.301-1.207.453-1.961.453-.32 0-.66-.038-.98-.095a4.169 4.169 0 0 1-.943-.283 3.384 3.384 0 0 1-.83-.51 2.877 2.877 0 0 1-.64-.718h-.038v5.119h-2.262V14.139h-.019zm7.899 5.138c0-.453-.057-.906-.189-1.34a3.427 3.427 0 0 0-.546-1.153 3.017 3.017 0 0 0-.886-.812c-.359-.208-.773-.303-1.226-.303-.942 0-1.659.322-2.149.983-.47.66-.716 1.549-.716 2.644 0 .53.057 1.001.188 1.436.132.434.302.812.566 1.133.245.321.547.567.905.756.358.188.754.283 1.225.283.528 0 .943-.113 1.3-.321a3.04 3.04 0 0 0 .887-.812c.226-.34.396-.718.49-1.153.094-.453.15-.887.15-1.34zm3.977-9.047h2.262v2.134h-2.262v-2.134zm0 3.91h2.262v10.256h-2.262V14.14zm4.28-3.91h2.261v14.166h-2.262V10.23zm9.16 14.45c-.81 0-1.545-.133-2.186-.416a4.96 4.96 0 0 1-1.621-1.115 4.853 4.853 0 0 1-1-1.718 6.728 6.728 0 0 1-.358-2.173c0-.774.113-1.492.358-2.153a5.026 5.026 0 0 1 1-1.719 4.52 4.52 0 0 1 1.62-1.114 5.712 5.712 0 0 1 2.187-.416c.811 0 1.546.132 2.187.416a4.686 4.686 0 0 1 1.621 1.114c.434.472.773 1.058.999 1.72.226.66.358 1.378.358 2.152 0 .794-.113 1.511-.358 2.173-.245.66-.565 1.227-.999 1.718-.433.473-.98.85-1.621 1.115a5.643 5.643 0 0 1-2.187.415zm0-1.795c.49 0 .943-.113 1.301-.321.377-.208.66-.491.905-.831.245-.34.414-.737.528-1.152a5.195 5.195 0 0 0 0-2.626 3.409 3.409 0 0 0-.528-1.152 2.866 2.866 0 0 0-.905-.812 2.656 2.656 0 0 0-1.301-.322c-.49 0-.942.114-1.3.322-.377.207-.66.49-.905.812-.245.34-.415.718-.528 1.152a5.155 5.155 0 0 0 0 2.626c.113.434.283.812.528 1.152.245.34.547.623.905.831.377.227.81.321 1.3.321zm5.844-8.745h1.715V11.04h2.262v3.079h2.036v1.68h-2.036v5.479c0 .245.019.434.038.623.019.17.076.321.132.434a.736.736 0 0 0 .321.265c.15.056.339.094.603.094.151 0 .32 0 .471-.019.151-.019.32-.037.471-.075v1.756c-.245.038-.49.057-.735.076-.245.038-.471.038-.735.038-.603 0-1.075-.057-1.433-.17a2.057 2.057 0 0 1-.848-.491 1.767 1.767 0 0 1-.415-.813 6.51 6.51 0 0 1-.132-1.133V15.82h-1.715V14.1v.039zM27.836 10.23H17.488L14.302.37l-3.205 9.86L.75 10.21l8.37 6.101-3.205 9.86 8.369-6.1 8.37 6.1-3.186-9.86 8.37-6.082z" fill="#333"/><path d="M20.183 18.54l-.716-2.229-5.165 3.76 5.881-1.53z" fill="#000"/></svg>