<svg width="107" height="60" viewBox="0 0 107 60" fill="none" xmlns="http://www.w3.org/2000/svg"><path d="M14.511 42.66l2.347 5.566 6.008.517a.475.475 0 0 1 .27.831l-4.557 3.956 1.365 5.886a.473.473 0 0 1-.705.514l-5.164-3.12-5.163 3.12a.473.473 0 0 1-.705-.514l1.366-5.886-4.558-3.957a.474.474 0 0 1 .268-.831l6.009-.518 2.347-5.564a.473.473 0 0 1 .872 0zM35.347 42.66l2.346 5.566 6.009.517a.475.475 0 0 1 .27.831l-4.557 3.956 1.365 5.886a.473.473 0 0 1-.705.514l-5.164-3.12-5.164 3.12a.473.473 0 0 1-.705-.514l1.366-5.886-4.559-3.957a.475.475 0 0 1 .27-.831l6.008-.518 2.348-5.564a.473.473 0 0 1 .872 0zM56.182 42.66l2.347 5.566 6.008.517a.475.475 0 0 1 .27.831L60.25 53.53l1.366 5.886a.474.474 0 0 1-.707.514l-5.162-3.12-5.164 3.12a.474.474 0 0 1-.706-.514l1.366-5.886-4.558-3.957a.474.474 0 0 1 .27-.831l6.008-.518 2.346-5.564a.473.473 0 0 1 .873 0zM77.018 42.66l2.346 5.566 6.008.517a.475.475 0 0 1 .27.831l-4.556 3.956 1.364 5.886a.473.473 0 0 1-.705.514l-5.163-3.12-5.163 3.12a.474.474 0 0 1-.706-.514l1.366-5.886-4.558-3.957a.474.474 0 0 1 .269-.831l6.008-.518 2.347-5.564a.473.473 0 0 1 .873 0z" fill="#FFD24D"/><path d="M99.739 48.42l.117.278.301.026 5.948.512-4.511 3.917-.228.197.068.293 1.351 5.825-5.109-3.087-.259-.156-.258.156-5.11 3.087 1.353-5.825.068-.293-.228-.197-4.514-3.918 5.949-.512.3-.026.117-.278 2.323-5.507 2.322 5.508z" fill="#FFD24D" fill-opacity=".38" stroke="#FFD24D"/><path d="M92.254 59.93l5.163-3.12V42.37a.466.466 0 0 0-.436.29l-2.347 5.564-6.008.518a.475.475 0 0 0-.27.831l4.559 3.957-1.366 5.886a.473.473 0 0 0 .705.514z" fill="#FFD24D"/><path fill-rule="evenodd" clip-rule="evenodd" d="M22.22 6.65c-.284.317-.617.634-.967.985l-1.384 1.32h4.018v1.636h-6.468V9.74l2.25-2.723c.417-.418.767-.785 1.017-1.102.25-.301.55-.669.684-.902.166-.268 1.016-1.086.933-2.105-.367-1.136-1.417-1.236-2.034-1.152-.633.016-1.366.868-1.483 1.603 0 0-1.15-.167-1.4-.284.017-.317.567-1.704 1.633-2.322.517-.234.85-.35 1.45-.35.467 0 .884.066 1.267.183.384.117.7.3.967.535.267.234.717.518.85.868.217.451.384.919.384 1.387.05 1.035-.834 2.054-1 2.321-.2.335-.434.652-.717.953zm-7.501 21.747C7.05 28.397.85 22.167.85 14.5.85 6.817 7.068.603 14.72.603v4.91C9.768 5.514 5.75 9.54 5.75 14.5c0 4.96 4.017 9.003 8.968 9.003 3.934 0 7.268-2.539 8.484-6.063-2.4 0-5.8-.017-5.8-.017V12.28H28.42c.116.718.183 1.47.183 2.221-.017 7.683-6.218 13.897-13.885 13.897zM33.255.37h.933v27.794h-.933V.37zm13.552 20.528c-.8.485-1.8.735-2.968.735-1.216 0-2.233-.2-3.017-.618-.8-.417-1.316-.985-1.583-1.72-.25-.735-.384-1.837-.384-3.307v-4.393c0-1.086.034-1.888.117-2.439.084-.534.317-1.069.717-1.57.4-.501.933-.902 1.633-1.186.7-.284 1.5-.434 2.4-.434 1.234 0 2.251.217 3.051.668.8.45 1.317 1.002 1.584 1.67.25.668.3.468.3 1.87v1.17l-3.4-.05v-1.019c0-.768-.084-1.253-.267-1.453-.184-.184-.567-.284-1.15-.284-.684 0-1.1.117-1.284.35-.183.235-.267.736-.267 1.504v6.865c0 .735.084 1.22.267 1.453.183.234.584.334 1.234.334.616 0 1-.117 1.2-.334.183-.234.283-.534.283-1.37l-.017-1.085h3.418v.234c0 1.553-.05 2.054-.284 2.689-.267.651-.783 1.236-1.583 1.72zM56.525 9.94c0-.468-.234-1.019-.684-1.17-.45-.15-1.033-.216-2.233-.216v4.259c1.166 0 1.75-.067 2.2-.184.467-.117.7-1.202.7-1.87V9.94h.017zm0 6.732c0-.802-.167-1.287-.5-1.487-.334-.184-.984-.284-2.4-.284v6.497h-3.351l.05-15.1h3.017c2.017 0 3.384.068 4.1.218.717.15 1.3.501 1.75 1.086.45.584.684 1.52.684 2.806 0 1.169-.2 2.221-.5 2.622-.317.401-.933.652-1.85.735.833.2 1.4.451 1.683.768.284.318.467.618.534.886.066.267.15.718.15 1.937v3.959l-3.334.083v-4.726h-.033zm11.935-6.498c0-.702-.117-1.136-.334-1.336-.216-.2-.683-.284-1.367-.284-.583 0-1.033.083-1.35.234-.317.15-.466.618-.466 1.386v6.982c0 .868.1 1.403.3 1.603.2.2.683.301 1.416.301.767 0 1.25-.117 1.467-.35.217-.235.317-.786.317-1.671v-6.865h.017zm2.617 9.838c-.417.518-1 .919-1.717 1.203-.717.284-1.567.417-2.534.417-.917 0-1.733-.133-2.467-.4-.733-.268-1.317-.652-1.75-1.186a3.242 3.242 0 0 1-.784-1.72c-.083-.619-.133-1.705-.133-3.258v-2.572c0-1.504.033-2.573.117-3.207a3.288 3.288 0 0 1 .767-1.72c.433-.519 1-.92 1.716-1.203.717-.284 1.567-.418 2.534-.418.917 0 1.734.134 2.467.4.734.268 1.317.652 1.75 1.187.434.518.7 1.102.784 1.72.083.618.133 1.704.133 3.24v2.59c0 1.503-.033 2.572-.116 3.207a3.287 3.287 0 0 1-.767 1.72zm12.435 1.303c-.484-2.305-1.617-7.967-2-10.924-.167 1.27-1.5 6.932-2.117 10.924h-3.668l-2.85-15.033h3.217l.917 5.245.667 6.23c.15-2.622 1.483-7.232 2.117-11.475h3.733c.05.434.684 2.088.934 4.96l.933 6.415c.25-3.641 1.1-7.9 1.667-11.375h2.984L86.98 21.315h-3.467zm14.085-10.69c0-.668-.05-1.103-.15-1.303-.1-.184-.35-.334-.733-.418-.384-.083-1.084-.133-2.134-.133v10.038c1.384 0 2.217-.116 2.55-.334.317-.217.484-.835.484-1.837v-6.013h-.017zm3.051 8.936c-.134.451-.384.819-.734 1.07-.35.25-.767.433-1.283.534-.5.1-1.034.15-2.067.15H91.18V6.282h3.2c2.067 0 3.234.084 3.95.267.734.167 1.284.451 1.668.852.383.401.616.835.716 1.32.1.484.134 1.436.134 2.856v5.261c.016 1.353-.05 2.255-.2 2.723z" fill="#333"/></svg>