<svg width="1530" height="322" viewBox="0 0 1530 322" fill="none" xmlns="http://www.w3.org/2000/svg"><path fill-rule="evenodd" clip-rule="evenodd" d="M765 99v94.002c0 70.692 57.308 128 128 128h637V227H893c-70.692 0-128-57.308-128-128z" fill="#D2D2D2"/><path fill-rule="evenodd" clip-rule="evenodd" d="M765 81.002v80c0 70.692 57.308 128 128 128h637V227H893c-70.692 0-128-57.308-128-128V81.002z" fill="#E7E7E7"/><path fill-rule="evenodd" clip-rule="evenodd" d="M765 81.002v49c0 70.692 57.308 128 128 128h637V227H893c-70.692 0-128-57.308-128-128V81.002z" fill="#F6F6F6"/><path fill-rule="evenodd" clip-rule="evenodd" d="M765 99v94.002c0 70.692-57.308 128-128 128H0V227h637c70.692 0 128-57.307 128-128z" fill="#D2D2D2"/><path fill-rule="evenodd" clip-rule="evenodd" d="M765 81.002v80c0 70.692-57.308 128-128 128H0V227h637c70.692 0 128-57.307 128-128V81.002z" fill="#E7E7E7"/><path fill-rule="evenodd" clip-rule="evenodd" d="M765 81.002v49c0 70.692-57.308 128-128 128H0V227h637c70.692 0 128-57.307 128-128V81.002z" fill="#F6F6F6"/><g clip-path="url(#a)" stroke="#333" stroke-width="1.571" stroke-linecap="round" stroke-linejoin="round"><path d="M757.413 74.124c-8.745.823-13.084 11.167-13.318 16.57-.049 1.131-1.242 1.528-1.719.089-6.615-20.001 9.714-32.61 9.714-32.61s.175 1.208 1.811 7.191c1.634 5.983 3.513 8.759 3.513 8.759h-.001zM770.683 74.115c8.748.813 13.119 11.153 13.372 16.554.053 1.13 1.248 1.527 1.719.088 6.551-20.01-9.819-32.598-9.819-32.598s-.171 1.207-1.788 7.193c-1.614 5.986-3.485 8.762-3.485 8.762l.001.001zM763.965 1.685c-3.585.002-11.598 17.077-11.598 17.077l22.735-.013S767.549 1.68 763.965 1.685z" fill="#F6F6F6"/><path d="M770.394 81.791l-13.12.008-1.528-6.515 16.154-.01-1.506 6.517z" fill="#F6F6F6"/><path d="M775.102 18.749l-11.368.007-11.367.006c-4.919 16.218-7.151 31.859 3.38 56.52l16.16-.01c10.451-24.674 8.168-40.311 3.195-56.523z" fill="#fff"/><path d="M763.745 24.882a9.57 9.57 0 0 0-9.569 9.589c.008 5.292 4.306 9.58 9.6 9.577a9.572 9.572 0 0 0 9.569-9.589c-.009-5.293-4.305-9.58-9.6-9.577zm.025 16.286a6.709 6.709 0 0 1-6.714-6.699 6.695 6.695 0 0 1 6.693-6.708 6.711 6.711 0 0 1 6.715 6.7 6.695 6.695 0 0 1-6.694 6.707z" fill="#fff"/><path d="M770.465 34.461a6.695 6.695 0 0 1-6.694 6.708 6.709 6.709 0 0 1-6.714-6.699 6.695 6.695 0 0 1 6.693-6.708 6.71 6.71 0 0 1 6.715 6.7z" fill="#fff"/><path d="M758.447 81.799l10.755-.007c5.719 15.142-4.705 24.37-4.705 24.37-12.51-10.135-6.049-24.364-6.049-24.364h-.001z" fill="#F2C94C"/><path d="M767.51 81.793l-7.381.004c-.525 3.998-.506 10.74 4.077 16.067 0 0 4.721-6.004 3.304-16.07z" fill="#F2994A"/><path d="M764.044 89.83s1.917-2.947 2.026-8.036l-4.472.003c.081 2.517.647 5.506 2.446 8.034z" fill="#EB5757"/></g><defs><clipPath id="a"><path fill="#fff" transform="matrix(.7547 .65683 -.65612 .754 763.612 .13)" d="M0 0h76.836v83.131H0z"/></clipPath></defs></svg>